<svg xmlns="http://www.w3.org/2000/svg" xmlns:xlink="http://www.w3.org/1999/xlink" aria-hidden="true" role="img" class="iconify iconify--logos" width="31.88" height="32" preserveAspectRatio="xMidYMid meet" viewBox="0 0 256 257">
<defs>
<linearGradient id="IconifyId1813088fe1fbc01fb466" x1="-.828%" x2="57.636%" y1="7.652%" y2="78.411%">
<stop offset="0%" stop-color="#41D1FF">
</stop><stop offset="100%" stop-color="#BD34FE">
</stop>
</linearGradient>
<linearGradient id="IconifyId1813088fe1fbc01fb467" x1="43.376%" x2="50.316%" y1="2.242%" y2="89.03%">
<stop offset="0%" stop-color="#FFEA83"></stop><stop offset="8.333%" stop-color="#FFDD35">
</stop>
<stop offset="100%" stop-color="#FFA800">
</stop>
</linearGradient>
</defs>
<path fill="url(#IconifyId1813088fe1fbc01fb466)" d="M12 10.9c-.61 0-1.1.49-1.1 1.1s.49 1.1 1.1 1.1c.61 0 1.1-.49 1.1-1.1s-.49-1.1-1.1-1.1M12 2C6.48 2 2 6.48 2 12s4.48 10 10 10 10-4.48 10-10S17.52 2 12 2m2.19 12.19L6 18l3.81-8.19L18 6z">
</path>
</svg>